Coordinates
version=1
nRows=12
nColumns=46
inDegrees=yes

Units are S.I. units (second, meters, Newtons, ...)
Angles are in degrees.

endheader
time	pelvis_tilt	pelvis_list	pelvis_rotation	pelvis_tx	pelvis_ty	pelvis_tz	bb_angle	bb_tx	bb_ty	bb_tz	hip_flexion_r	hip_adduction_r	hip_rotation_r	knee_angle_r	knee_angle_r_beta	ankle_angle_r	subtalar_angle_r	mtp_angle_r	crank_angle_r	hip_flexion_l	hip_adduction_l	hip_rotation_l	knee_angle_l	knee_angle_l_beta	ankle_angle_l	subtalar_angle_l	mtp_angle_l	crank_angle_l	lumbar_extension	lumbar_bending	lumbar_rotation	arm_flex_r	arm_add_r	arm_rot_r	elbow_flex_r	pro_sup_r	wrist_flex_r	wrist_dev_r	arm_flex_l	arm_add_l	arm_rot_l	elbow_flex_l	pro_sup_l	wrist_flex_l	wrist_dev_l
      7.50500000	    -27.98117991	      4.85411731	    -16.60815875	      0.42475710	      1.16658075	     -0.21852763	      0.00000000	      0.50000000	      0.00000000	      0.25000000	     60.31743099	      5.27689356	     11.61012754	     60.70781870	      1.05955132	     15.06746223	     -4.04300492	      0.00000000	      0.00000000	     39.93315089	     -5.92093751	     -4.80070886	     62.58401272	      1.09229708	    -20.85008717	     -9.09064722	      0.00000000	      0.00000000	    -56.72593213	     -6.85010040	      5.94822108	     56.20372001	    -23.05541100	     37.24981656	     78.01113415	     59.15981832	      0.00000000	      0.00000000	     46.39160788	    -22.27910688	     20.72258385	     71.22604160	     51.27144585	      0.00000000	      0.00000000
      7.51000000	    -27.66570541	      5.67126417	    -16.45838545	      0.42523177	      1.16537703	     -0.21773213	      0.00000000	      0.50000000	      0.00000000	      0.25000000	     58.80675484	      4.42523831	     12.35974328	     58.08631458	      1.01379744	     14.15410134	     -3.92992308	      0.00000000	      0.00000000	     40.76375431	     -5.05895577	     -4.84781238	     65.05242145	      1.13537894	    -19.34354663	     -9.31842703	      0.00000000	      0.00000000	    -56.82887438	     -7.98719832	      8.09569313	     52.51977553	    -27.15162301	     33.37677818	     82.71672210	     59.60649654	      0.00000000	      0.00000000	     49.68135837	    -19.58124038	     24.74066148	     67.31894089	     51.47889423	      0.00000000	      0.00000000
      7.51500000	    -27.36650393	      6.53692228	    -16.16851640	      0.42571869	      1.16406050	     -0.21713411	      0.00000000	      0.50000000	      0.00000000	      0.25000000	     57.30618059	      3.44454657	     13.19156656	     55.51481302	      0.96891627	     13.29836832	     -3.65930240	      0.00000000	      0.00000000	     41.68939805	     -4.09975656	     -4.91137787	     67.50019774	      1.17810070	    -18.32226030	     -9.72476360	      0.00000000	      0.00000000	    -56.85316893	     -8.65953296	      7.32117966	     52.27358852	    -27.49811208	     33.32344960	     82.62408514	     59.59362642	      0.00000000	      0.00000000	     49.63638339	    -19.47715634	     24.88634356	     67.27253098	     51.49874780	      0.00000000	      0.00000000
      7.52000000	    -27.20411003	      7.08826486	    -15.76848438	      0.42596012	      1.16249153	     -0.21624621	      0.00000000	      0.50000000	      0.00000000	      0.25000000	     55.81488858	      2.69449180	     13.75179144	     52.86334267	      0.92263938	     11.84813296	     -4.60353920	      0.00000000	      0.00000000	     42.82096371	     -3.57455562	     -4.84204862	     70.15844813	      1.22449592	    -16.69868594	     -9.29068214	      0.00000000	      0.00000000	    -56.78607460	     -9.07447433	      7.02144746	     51.85132820	    -28.36621312	     33.25610807	     82.93091454	     59.66022299	      0.00000000	      0.00000000	     49.95962338	    -19.40465881	     25.59114486	     67.15569309	     51.62162259	      0.00000000	      0.00000000
      7.52500000	    -26.96450103	      7.96818090	    -15.30004782	      0.42645368	      1.16087759	     -0.21563316	      0.00000000	      0.50000000	      0.00000000	      0.25000000	     54.39067809	      1.54958542	     14.39635393	     50.42884999	      0.88014947	     10.76428536	     -4.41204346	      0.00000000	      0.00000000	     43.90103510	     -2.61498019	     -4.98272043	     72.61414597	      1.26735593	    -15.57374787	     -9.69065063	      0.00000000	      0.00000000	    -56.71495431	     -9.66589320	      6.21284477	     51.50001695	    -28.81407072	     33.21811761	     82.87565718	     59.65823129	      0.00000000	      0.00000000	     50.13493823	    -19.30301575	     25.79443617	     67.12406478	     51.65001563	      0.00000000	      0.00000000
      7.53000000	    -26.99071456	      8.55081415	    -14.60562922	      0.42657515	      1.15900574	     -0.21494496	      0.00000000	      0.50000000	      0.00000000	      0.25000000	     53.09306886	      0.61665522	     14.75114714	     47.97913738	      0.83739392	      9.15189485	     -5.61829111	      0.00000000	      0.00000000	     45.34078182	     -1.88049253	     -4.69492987	     75.21849963	      1.31281048	    -14.22834722	     -9.45354648	      0.00000000	      0.00000000	    -56.43567677	     -9.99544889	      5.73068492	     50.95804517	    -29.69919796	     33.21583182	     83.17206636	     59.68472999	      0.00000000	      0.00000000	     50.61044152	    -19.22460676	     26.74892108	     66.91913473	     51.74746423	      0.00000000	      0.00000000
      7.53500000	    -26.84734051	      9.37799369	    -14.01556181	      0.42706480	      1.15729330	     -0.21443967	      0.00000000	      0.50000000	      0.00000000	      0.25000000	     51.70032464	     -0.61439489	     15.20044993	     45.58955301	      0.79568780	      8.13868437	     -5.42535194	      0.00000000	      0.00000000	     46.54457776	     -0.95410751	     -4.82973813	     77.63474029	      1.35498183	    -12.98034135	     -9.85654155	      0.00000000	      0.00000000	    -56.22616579	    -10.51548653	      4.85615077	     50.51752847	    -30.15290274	     33.19856807	     83.06200708	     59.63677811	      0.00000000	      0.00000000	     50.84176071	    -19.09706441	     27.00404476	     66.87905909	     51.75891909	      0.00000000	      0.00000000
      7.54000000	    -26.82570041	     10.14749195	    -13.11110801	      0.42732679	      1.15560269	     -0.21385108	      0.00000000	      0.50000000	      0.00000000	      0.25000000	     50.36205840	     -1.94935116	     15.43636883	     43.21454185	      0.75423604	      6.78143501	     -5.87265595	      0.00000000	      0.00000000	     47.91323268	      0.08481057	     -4.59114308	     80.00872784	      1.39641573	    -11.59143056	     -9.65691553	      0.00000000	      0.00000000	    -55.98540753	    -10.90898565	      3.93125598	     50.01858874	    -30.72911316	     33.25501394	     82.97655494	     59.63127413	      0.00000000	      0.00000000	     51.18226575	    -19.01231136	     27.61474895	     66.70991218	     51.80728131	      0.00000000	      0.00000000
      7.54500000	    -26.96643940	     10.62571554	    -12.01170518	      0.42746184	      1.15375736	     -0.21315813	      0.00000000	      0.50000000	      0.00000000	      0.25000000	     48.93773805	     -3.06754526	     15.57486347	     40.72455964	      0.71077765	      5.06828220	     -7.19785998	      0.00000000	      0.00000000	     49.42884048	      0.93174794	     -4.10038536	     82.43259302	      1.43872016	     -9.90123445	     -9.14219176	      0.00000000	      0.00000000	    -55.50479534	    -11.00656177	      3.38792036	     49.46805744	    -31.57465875	     33.40442435	     82.96695097	     59.65146960	      0.00000000	      0.00000000	     52.23962988	    -18.86721302	     29.04330557	     65.88130836	     51.86178438	      0.00000000	      0.00000000
      7.55000000	    -27.00711530	     11.45684480	    -11.08427519	      0.42767098	      1.15198093	     -0.21234138	      0.00000000	      0.50000000	      0.00000000	      0.25000000	     47.60362063	     -4.42966384	     16.02245770	     38.46639755	      0.67136529	      4.12571118	     -7.03683283	      0.00000000	      0.00000000	     50.91575411	      2.02121065	     -4.06967366	     84.60504024	      1.47663652	     -8.87499940	     -9.55580525	      0.00000000	      0.00000000	    -55.18911429	    -11.45520260	      2.28053877	     49.02933983	    -31.88494094	     33.51766289	     82.80748272	     59.63039526	      0.00000000	      0.00000000	     52.27045004	    -18.55669224	     29.71208912	     65.73326564	     51.91169486	      0.00000000	      0.00000000
      7.55500000	    -27.16413828	     12.03851301	     -9.67312338	      0.42750914	      1.15039386	     -0.21177274	      0.00000000	      0.50000000	      0.00000000	      0.25000000	     46.18477923	     -5.80430894	     16.06863557	     36.13048293	      0.63059589	      2.26032049	     -8.45811044	      0.00000000	      0.00000000	     52.51364921	      3.17270534	     -3.57714922	     86.76441684	      1.51432475	     -7.75049850	     -9.44536424	      0.00000000	      0.00000000	    -54.68038644	    -11.65562069	      2.15427390	     47.69354764	    -33.44508331	     32.96334761	     83.06599551	     59.68637831	      0.00000000	      0.00000000	     55.19860003	    -18.58402889	     35.42432113	     62.76758993	     52.31025205	      0.00000000	      0.00000000
      7.56000000	    -27.34635866	     12.80862759	     -8.45722314	      0.42748561	      1.14872530	     -0.21112337	      0.00000000	      0.50000000	      0.00000000	      0.25000000	     44.93356337	     -7.28896680	     16.16047759	     34.03972231	      0.59410523	      1.20945142	     -8.38591340	      0.00000000	      0.00000000	     54.10175850	      4.28556584	     -3.47549492	     88.79262483	      1.54972365	     -6.59820708	     -9.64917034	      0.00000000	      0.00000000	    -54.27518569	    -12.05382970	      0.99144566	     47.11360674	    -33.70286574	     33.01641903	     82.80470201	     59.64048661	      0.00000000	      0.00000000	     55.52962085	    -18.37771129	     35.51284518	     62.80984843	     52.31820476	      0.00000000	      0.00000000
